<?xml version="1.0" encoding="UTF-8" standalone="no"?>
<!DOCTYPE svg PUBLIC "-//W3C//DTD SVG 1.1//EN" "http://www.w3.org/Graphics/SVG/1.1/DTD/svg11.dtd">
<svg width="100%" height="100%" viewBox="0 0 1500 1079" version="1.1" xmlns="http://www.w3.org/2000/svg" xmlns:xlink="http://www.w3.org/1999/xlink" xml:space="preserve" xmlns:serif="http://www.serif.com/" style="fill-rule:evenodd;clip-rule:evenodd;stroke-linejoin:round;stroke-miterlimit:2;">
    <g>
        <path d="M504.943,430.802C404.252,442.244 317.864,495.069 263.895,578.025C243.3,609.491 225.564,653.352 217.555,692.828C212.596,717.428 212.596,790.276 217.555,814.877C237.96,915.759 301.464,998.905 391.475,1043.53C429.234,1062.22 464.133,1072.33 507.232,1076.9C519.245,1078.24 605.253,1079 750.759,1079C940.698,1079 979.22,1078.62 998.291,1076.14C1077.43,1065.84 1141.89,1033.99 1195.29,978.5C1219.7,953.136 1235.33,931.396 1250.59,901.647C1275.19,853.399 1285.49,809.728 1285.49,753.852C1285.49,697.976 1275.19,654.306 1250.59,606.058C1235.33,576.308 1219.7,554.568 1195.29,529.205C1141.89,473.71 1077.43,441.863 998.291,431.565C979.22,429.086 941.461,428.705 747.517,428.895C622.035,429.086 512.762,429.849 504.943,430.802ZM985.323,650.492C1023.85,660.98 1055.31,691.302 1064.65,727.154C1068.28,741.647 1068.28,766.057 1064.65,780.551C1055.12,816.975 1023.46,847.297 984.369,857.213C972.164,860.455 955.192,860.646 749.042,860.646C541.749,860.646 526.111,860.455 514.478,857.213C476.529,846.915 450.402,824.222 436.863,789.895C432.286,778.072 431.714,774.257 431.714,753.852C431.714,733.447 432.286,729.633 436.863,717.81C451.928,679.478 484.157,654.496 526.874,648.203C533.167,647.25 636.147,646.678 755.717,646.868C955.192,647.25 974.071,647.44 985.323,650.492Z" style="fill:white;fill-rule:nonzero;"/>
        <path d="M754.519,103.942L67.579,361.933C41.745,371.635 12.895,358.538 3.192,332.704C-6.51,306.87 6.587,278.02 32.421,268.317L736.94,3.724C748.273,-0.532 760.765,-0.532 772.098,3.724L1466.9,264.669C1492.74,274.372 1505.84,303.222 1496.13,329.056C1486.43,354.89 1457.58,367.987 1431.75,358.285L754.519,103.942Z" style="fill:rgb(117,22,191);"/>
    </g>
</svg>
